<svg width="36" height="36" viewBox="0 0 36 36" fill="none" xmlns="http://www.w3.org/2000/svg">
<path d="M18.0357 0H17.9537C8.03816 0 0 8.04052 0 17.959V18.041C0 27.9595 8.03816 36 17.9537 36H18.0357C27.9512 36 35.9894 27.9595 35.9894 18.041V17.959C35.9894 8.04052 27.9512 0 18.0357 0Z" fill="url(#paint0_linear_367_351)"/>
<path d="M23.5632 7.32227H12.4271C9.35051 7.32227 6.84766 9.82586 6.84766 12.9033V23.0943C6.84766 26.1717 9.35051 28.6753 12.4271 28.6753H23.5632C26.6397 28.6753 29.1426 26.1717 29.1426 23.0943V12.9033C29.1426 9.82586 26.6397 7.32227 23.5632 7.32227ZM8.8159 12.9033C8.8159 10.9118 10.4361 9.29108 12.4271 9.29108H23.5632C25.5541 9.29108 27.1744 10.9118 27.1744 12.9033V23.0943C27.1744 25.0858 25.5541 26.7065 23.5632 26.7065H12.4271C10.4361 26.7065 8.8159 25.0858 8.8159 23.0943V12.9033Z" fill="white"/>
<path d="M17.9952 23.1893C20.8562 23.1893 23.185 20.861 23.185 17.998C23.185 15.1349 20.8574 12.8066 17.9952 12.8066C15.133 12.8066 12.8054 15.1349 12.8054 17.998C12.8054 20.861 15.133 23.1893 17.9952 23.1893ZM17.9952 14.7767C19.7718 14.7767 21.2168 16.2221 21.2168 17.9992C21.2168 19.7763 19.7718 21.2217 17.9952 21.2217C16.2186 21.2217 14.7737 19.7763 14.7737 17.9992C14.7737 16.2221 16.2186 14.7767 17.9952 14.7767Z" fill="white"/>
<path d="M23.6652 13.6441C24.4356 13.6441 25.0635 13.0173 25.0635 12.2454C25.0635 11.4735 24.4368 10.8467 23.6652 10.8467C22.8935 10.8467 22.2668 11.4735 22.2668 12.2454C22.2668 13.0173 22.8935 13.6441 23.6652 13.6441Z" fill="white"/>
<defs>
<linearGradient id="paint0_linear_367_351" x1="5.25788" y1="30.7406" x2="30.739" y2="5.2682" gradientUnits="userSpaceOnUse">
<stop stop-color="#FAAD4F"/>
<stop offset="0.35" stop-color="#DD2A7B"/>
<stop offset="0.62" stop-color="#9537B0"/>
<stop offset="1" stop-color="#515BD4"/>
</linearGradient>
</defs>
</svg>
