<svg width="36" height="36" viewBox="0 0 36 36" fill="none" xmlns="http://www.w3.org/2000/svg">
<path d="M18.0357 0H17.9537C8.03817 0 0 8.04052 0 17.959V18.041C0 27.9595 8.03817 36 17.9537 36H18.0357C27.9512 36 35.9894 27.9595 35.9894 18.041V17.959C35.9894 8.04052 27.9512 0 18.0357 0Z" fill="#007EBB"/>
<path d="M8.58291 11.9664C8.10882 11.5263 7.87305 10.9814 7.87305 10.3331C7.87305 9.68483 8.11008 9.11601 8.58291 8.67457C9.057 8.23439 9.66727 8.01367 10.415 8.01367C11.1627 8.01367 11.749 8.23439 12.2218 8.67457C12.6959 9.11475 12.9317 9.66844 12.9317 10.3331C12.9317 10.9978 12.6947 11.5263 12.2218 11.9664C11.7477 12.4066 11.1463 12.6273 10.415 12.6273C9.68366 12.6273 9.057 12.4066 8.58291 11.9664ZM12.5333 14.4915V27.9869H8.27021V14.4915H12.5333Z" fill="#FEFFFC"/>
<path d="M26.7244 15.826C27.6537 16.835 28.1177 18.2199 28.1177 19.9831V27.7499H24.069V20.5305C24.069 19.6413 23.8383 18.9501 23.3781 18.4582C22.9179 17.9664 22.2975 17.7191 21.5208 17.7191C20.7441 17.7191 20.1237 17.9651 19.6635 18.4582C19.2033 18.9501 18.9725 19.6413 18.9725 20.5305V27.7499H14.8999V14.455H18.9725V16.2183C19.3848 15.6305 19.9409 15.1664 20.6394 14.8246C21.338 14.4828 22.1235 14.3125 22.9973 14.3125C24.5532 14.3125 25.7964 14.817 26.7244 15.826Z" fill="#FEFFFC"/>
</svg>
